<?xml version="1.0" encoding="utf-8"?>
<!-- Generator: Adobe Illustrator 17.0.0, SVG Export Plug-In . SVG Version: 6.00 Build 0)  -->
<!DOCTYPE svg PUBLIC "-//W3C//DTD SVG 1.1//EN" "http://www.w3.org/Graphics/SVG/1.1/DTD/svg11.dtd">
<svg version="1.1" id="Layer_1" xmlns="http://www.w3.org/2000/svg" xmlns:xlink="http://www.w3.org/1999/xlink" x="0px" y="0px"
	 width="282px" height="282px" viewBox="0 0 282 282" enable-background="new 0 0 282 282" xml:space="preserve" xmlns:hide="-">
		<style>
		<![CDATA[
			svg .day, svg .night {
				-webkit-transition: opacity 1s ease-in-out;
                transition: opacity 1s ease-in-out;
			}
	   ]]>
	</style>
	<g hide:state="0" class="day">
<path fill-rule="evenodd" clip-rule="evenodd" d="M141,46.499c52.191,0,94.5,42.309,94.5,94.5s-42.309,94.5-94.5,94.5
	S46.5,193.191,46.5,141S88.809,46.499,141,46.499"/>
<path fill-rule="evenodd" clip-rule="evenodd" d="M163.625,39.98C156.936,25.472,149.394,12.146,141,0
	c-8.395,12.146-15.936,25.472-22.626,39.98c7.282-1.624,14.854-2.481,22.626-2.481C148.772,37.499,156.343,38.356,163.625,39.98"/>
<path fill-rule="evenodd" clip-rule="evenodd" d="M110.084,42.201C97.037,32.982,83.843,25.212,70.5,18.89
	c-1.197,14.716-1.065,30.028,0.396,45.937c5.495-5.047,11.623-9.575,18.354-13.461C95.98,47.48,102.966,44.436,110.084,42.201"/>
<path fill-rule="evenodd" clip-rule="evenodd" d="M64.827,70.896C48.918,69.435,33.606,69.303,18.89,70.5
	c6.321,13.343,14.092,26.537,23.311,39.584c2.235-7.119,5.279-14.104,9.165-20.835C55.252,82.519,59.78,76.39,64.827,70.896"/>
<path fill-rule="evenodd" clip-rule="evenodd" d="M39.98,118.374C25.472,125.063,12.146,132.605,0,141
	c12.146,8.395,25.472,15.936,39.98,22.626C38.356,156.343,37.5,148.771,37.5,141C37.5,133.228,38.356,125.656,39.98,118.374"/>
<path fill-rule="evenodd" clip-rule="evenodd" d="M42.201,171.916c-9.219,13.047-16.99,26.241-23.311,39.584
	c14.716,1.197,30.028,1.065,45.936-0.396c-5.047-5.495-9.575-11.624-13.461-18.354C47.48,186.019,44.436,179.034,42.201,171.916"/>
<path fill-rule="evenodd" clip-rule="evenodd" d="M70.896,217.173c-1.461,15.908-1.593,31.221-0.396,45.936
	c13.343-6.321,26.537-14.092,39.584-23.311c-7.119-2.235-14.104-5.279-20.835-9.165C82.519,226.748,76.39,222.22,70.896,217.173"/>
<path fill-rule="evenodd" clip-rule="evenodd" d="M118.374,242.02c6.689,14.507,14.231,27.834,22.626,39.98
	c8.395-12.146,15.936-25.472,22.626-39.98c-7.282,1.624-14.854,2.481-22.626,2.481C133.228,244.5,125.656,243.643,118.374,242.02"/>
<path fill-rule="evenodd" clip-rule="evenodd" d="M171.916,239.799c13.047,9.219,26.241,16.989,39.584,23.311
	c1.197-14.716,1.065-30.028-0.396-45.936c-5.495,5.047-11.624,9.575-18.354,13.461C186.019,234.52,179.034,237.563,171.916,239.799"
	/>
<path fill-rule="evenodd" clip-rule="evenodd" d="M217.173,211.104c15.908,1.461,31.22,1.593,45.936,0.396
	c-6.321-13.343-14.092-26.537-23.311-39.584c-2.235,7.119-5.279,14.104-9.165,20.835C226.748,199.48,222.22,205.609,217.173,211.104
	"/>
<path fill-rule="evenodd" clip-rule="evenodd" d="M242.02,163.625c14.507-6.689,27.834-14.231,39.98-22.626
	c-12.146-8.395-25.472-15.936-39.98-22.626c1.624,7.282,2.481,14.854,2.481,22.626C244.5,148.771,243.643,156.343,242.02,163.625"/>
<path fill-rule="evenodd" clip-rule="evenodd" d="M239.799,110.084c9.219-13.047,16.989-26.241,23.311-39.584
	c-14.716-1.197-30.028-1.065-45.937,0.396c5.047,5.495,9.575,11.624,13.461,18.354C234.52,95.98,237.563,102.966,239.799,110.084"/>
<path fill-rule="evenodd" clip-rule="evenodd" d="M211.104,64.827c1.461-15.908,1.593-31.22,0.396-45.936
	c-13.343,6.321-26.537,14.092-39.584,23.311c7.119,2.235,14.104,5.279,20.835,9.165C199.48,55.252,205.609,59.78,211.104,64.827"/>
<path fill-rule="evenodd" clip-rule="evenodd" d="M163.625,39.98C156.936,25.472,149.394,12.146,141,0
	c-8.395,12.146-15.936,25.472-22.626,39.98c7.282-1.624,14.854-2.481,22.626-2.481C148.772,37.499,156.343,38.356,163.625,39.98"/>
	</g>
	<g hide:state="1" class="night" fill="#000000">
<polygon fill-rule="evenodd" clip-rule="evenodd" points="156.855,60.728 160.123,70.854 170.764,70.833
	162.143,77.071 165.451,87.185 156.855,80.914 148.258,87.185 151.566,77.071 142.945,70.833 153.586,70.854 "/>
<polygon fill-rule="evenodd" clip-rule="evenodd" points="142.945,114.414 145.589,122.604 154.195,122.587
	147.223,127.633 149.898,135.812 142.945,130.74 135.992,135.812 138.667,127.633 131.695,122.587 140.301,122.604 "/>
<polygon fill-rule="evenodd" clip-rule="evenodd" points="199,114.414 202.269,124.54 212.91,124.519
	204.289,130.757 207.597,140.871 199,134.6 190.403,140.871 193.711,130.757 185.09,124.519 195.731,124.54 "/>
<path fill-rule="evenodd" clip-rule="evenodd" d="M187.849,186.239c-46.171,0-83.6-37.429-83.6-83.6
	c0-20.931,7.692-40.066,20.405-54.731C80.253,55.651,46.5,94.383,46.5,141c0,52.191,42.309,94.5,94.5,94.5
	c40.053,0,74.286-24.918,88.043-60.098C216.884,182.3,202.827,186.239,187.849,186.239"/>
	</g>
</svg>
