<?xml version="1.0" encoding="utf-8"?>
<!-- Generator: Adobe Illustrator 20.0.0, SVG Export Plug-In . SVG Version: 6.00 Build 0)  -->
<svg version="1.1" id="Layer_1" xmlns="http://www.w3.org/2000/svg" xmlns:xlink="http://www.w3.org/1999/xlink" x="0px" y="0px"
	 viewBox="0 0 599.4 1431" style="enable-background:new 0 0 599.4 1431;" xml:space="preserve" xmlns:pulse="-">
<g>
	<path d="M298.7,692.5c-57.1,0-110.8,22.2-151.1,62.6c-40.4,40.4-62.6,94-62.6,151.1s22.2,110.8,62.6,151.1
		c40.4,40.4,94,62.6,151.1,62.6c57.1,0,110.8-22.2,151.1-62.6c40.4-40.4,62.6-94,62.6-151.1s-22.2-110.8-62.6-151.1
		C409.5,714.8,355.8,692.5,298.7,692.5z M298.7,1112.9c-113.9,0-206.6-92.7-206.6-206.6c0-113.9,92.7-206.6,206.6-206.6
		c113.9,0,206.6,92.7,206.6,206.6C505.3,1020.2,412.7,1112.9,298.7,1112.9z"/>
	<path d="M298.7,811.3c-52.4,0-94.9,42.6-94.9,94.9s42.6,94.9,94.9,94.9c52.4,0,94.9-42.6,94.9-94.9S351.1,811.3,298.7,811.3z
		 M298.7,994.1c-48.4,0-87.9-39.4-87.9-87.9s39.4-87.9,87.9-87.9s87.9,39.4,87.9,87.9S347.2,994.1,298.7,994.1z"/>
	<path d="M298.7,794.3c-61.7,0-111.9,50.2-111.9,111.9c0,61.7,50.2,111.9,111.9,111.9c61.7,0,111.9-50.2,111.9-111.9
		C410.7,844.5,360.4,794.3,298.7,794.3z M298.7,1011.1c-57.8,0-104.9-47-104.9-104.9s47-104.9,104.9-104.9
		c57.8,0,104.9,47,104.9,104.9S356.5,1011.1,298.7,1011.1z"/>
	<path d="M298.7,777.3c-71.1,0-129,57.8-129,129c0,71.1,57.8,129,129,129s129-57.8,129-129C427.7,835.1,369.8,777.3,298.7,777.3z
		 M298.7,1028.1c-67.2,0-121.9-54.7-121.9-121.9c0-67.2,54.7-121.9,121.9-121.9c67.2,0,121.9,54.7,121.9,121.9
		C420.6,973.5,365.9,1028.1,298.7,1028.1z"/>
	<path d="M298.7,760.3c-80.5,0-146,65.5-146,146s65.5,146,146,146s146-65.5,146-146S379.2,760.3,298.7,760.3z M298.7,1045.1
		c-76.6,0-138.9-62.3-138.9-138.9c0-76.6,62.3-138.9,138.9-138.9c76.6,0,138.9,62.3,138.9,138.9
		C437.6,982.8,375.3,1045.1,298.7,1045.1z"/>
	<path d="M298.7,743.3c-89.9,0-163,73.1-163,163s73.1,163,163,163c89.9,0,163-73.1,163-163S388.6,743.3,298.7,743.3z M298.7,1062.1
		c-86,0-155.9-69.9-155.9-155.9c0-86,69.9-155.9,155.9-155.9s155.9,69.9,155.9,155.9C454.6,992.2,384.7,1062.1,298.7,1062.1z"/>
	<path d="M298.7,726.3c-99.2,0-180,80.7-180,180c0,99.2,80.7,180,180,180c99.2,0,180-80.7,180-180C478.7,807,398,726.3,298.7,726.3z
		 M298.7,1079.1c-95.3,0-172.9-77.6-172.9-172.9s77.6-172.9,172.9-172.9s172.9,77.6,172.9,172.9S394.1,1079.1,298.7,1079.1z"/>
	<path d="M298.7,709.3c-108.6,0-197,88.4-197,197c0,108.6,88.4,197,197,197s197-88.4,197-197C495.7,797.6,407.3,709.3,298.7,709.3z
		 M298.7,1096.2c-104.7,0-189.9-85.2-189.9-189.9S194,716.4,298.7,716.4c104.7,0,189.9,85.2,189.9,189.9S403.4,1096.2,298.7,1096.2z
		"/>
	<path d="M597,700.1c-0.6-53.2-0.4-106.5-0.1-159.2c0.5-114.9,1-226.8-7.5-327.4c-4.4-52.2-16.7-105-58.6-145.1
		C489.3,28.6,418.9,2,298.7,2C178.5,2,108.2,28.6,66.6,68.4c-41.9,40.1-54.2,92.9-58.6,145.1C-0.4,314,0.1,426,0.6,540.8
		c0.2,52.7,0.5,106.1-0.1,159.2c-0.9,77.2-0.5,150.3,1.4,220c1.9,70,5.3,136.5,10.4,200c9.3,117.7,16.2,194.7,53.5,243.3
		c37.6,49,104.4,67.6,233,67.6s195.4-18.6,233-67.6c37.3-48.6,44.2-125.5,53.5-243.3c5-63.5,8.4-130,10.4-200
		C597.5,850.4,597.9,777.3,597,700.1z M581.4,919.7c-1.9,69.3-5.3,135.5-10.4,199.3c-9.1,115.2-15.8,190.5-50.6,235.8
		c-34.5,44.9-98.1,62-221.7,62c-123.6,0-187.3-17.1-221.7-62c-34.8-45.4-41.5-120.6-50.6-235.8c-5.1-63.8-8.5-130-10.4-199.3
		c-1.9-69.6-2.3-142.5-1.4-219.5c0.6-53.2,0.4-106.7,0.1-159.5c-0.5-114.3-1-225.6,7.5-326.2c4.2-49.4,15.6-99.1,54.2-136.1
		c39-37.3,106.2-62.4,222.3-62.4c116.1,0,183.3,25,222.3,62.4c38.7,37,50,86.7,54.2,136.1c8.5,100.5,8,211.9,7.5,326.2
		c-0.2,52.8-0.5,106.2,0.1,159.5C583.8,777.2,583.3,850.1,581.4,919.7z"/>
	<path d="M465.3,533.8c2.9,0,5.5-1.2,7.4-3c1.9-1.9,3-4.5,3-7.4c0-2.9-1.2-5.5-3-7.4c-1.9-1.9-4.5-3-7.4-3c-2.9,0-5.5,1.2-7.4,3
		c-1.9,1.9-3,4.5-3,7.4c0,2.9,1.2,5.5,3,7.4C459.8,532.6,462.4,533.8,465.3,533.8z M459.9,518c1.4-1.4,3.3-2.2,5.3-2.2
		c2.1,0,4,0.8,5.3,2.2c1.4,1.4,2.2,3.3,2.2,5.3c0,2.1-0.8,4-2.2,5.3c-1.4,1.4-3.3,2.2-5.3,2.2c-2.1,0-4-0.8-5.3-2.2
		c-1.4-1.4-2.2-3.3-2.2-5.3C457.7,521.3,458.6,519.4,459.9,518z"/>
	<path d="M465.3,479.9c2.9,0,5.5-1.2,7.4-3c1.9-1.9,3-4.5,3-7.4c0-2.9-1.2-5.5-3-7.4c-1.9-1.9-4.5-3-7.4-3c-2.9,0-5.5,1.2-7.4,3
		c-1.9,1.9-3,4.5-3,7.4c0,2.9,1.2,5.5,3,7.4C459.8,478.7,462.4,479.9,465.3,479.9z M459.9,464.1c1.4-1.4,3.3-2.2,5.3-2.2
		c2.1,0,4,0.8,5.3,2.2c1.4,1.4,2.2,3.3,2.2,5.3c0,2.1-0.8,4-2.2,5.3c-1.4,1.4-3.3,2.2-5.3,2.2c-2.1,0-4-0.8-5.3-2.2
		c-1.4-1.4-2.2-3.3-2.2-5.3C457.7,467.4,458.6,465.5,459.9,464.1z"/>
	<path d="M465.3,426c2.9,0,5.5-1.2,7.4-3c1.9-1.9,3-4.5,3-7.4c0-2.9-1.2-5.5-3-7.4c-1.9-1.9-4.5-3-7.4-3c-2.9,0-5.5,1.2-7.4,3
		c-1.9,1.9-3,4.5-3,7.4c0,2.9,1.2,5.5,3,7.4C459.8,424.8,462.4,426,465.3,426z M459.9,410.2c1.4-1.4,3.3-2.2,5.3-2.2
		c2.1,0,4,0.8,5.3,2.2c1.4,1.4,2.2,3.3,2.2,5.3c0,2.1-0.8,4-2.2,5.3c-1.4,1.4-3.3,2.2-5.3,2.2c-2.1,0-4-0.8-5.3-2.2
		c-1.4-1.4-2.2-3.3-2.2-5.3C457.7,413.5,458.6,411.6,459.9,410.2z"/>
	<path d="M465.3,372.1c2.9,0,5.5-1.2,7.4-3c1.9-1.9,3-4.5,3-7.4c0-2.9-1.2-5.5-3-7.4c-1.9-1.9-4.5-3-7.4-3c-2.9,0-5.5,1.2-7.4,3
		c-1.9,1.9-3,4.5-3,7.4c0,2.9,1.2,5.5,3,7.4C459.8,370.9,462.4,372.1,465.3,372.1z M459.9,356.4c1.4-1.4,3.3-2.2,5.3-2.2
		c2.1,0,4,0.8,5.3,2.2c1.4,1.4,2.2,3.3,2.2,5.3c0,2.1-0.8,4-2.2,5.3c-1.4,1.4-3.3,2.2-5.3,2.2c-2.1,0-4-0.8-5.3-2.2
		c-1.4-1.4-2.2-3.3-2.2-5.3C457.7,359.6,458.6,357.7,459.9,356.4z"/>
	<path d="M465.3,318.2c2.9,0,5.5-1.2,7.4-3c1.9-1.9,3-4.5,3-7.4s-1.2-5.5-3-7.4c-1.9-1.9-4.5-3-7.4-3c-2.9,0-5.5,1.2-7.4,3
		c-1.9,1.9-3,4.5-3,7.4s1.2,5.5,3,7.4C459.8,317,462.4,318.2,465.3,318.2z M459.9,302.5c1.4-1.4,3.3-2.2,5.3-2.2
		c2.1,0,4,0.8,5.3,2.2c1.4,1.4,2.2,3.3,2.2,5.3s-0.8,4-2.2,5.3c-1.4,1.4-3.3,2.2-5.3,2.2c-2.1,0-4-0.8-5.3-2.2
		c-1.4-1.4-2.2-3.3-2.2-5.3S458.6,303.8,459.9,302.5z"/>
	<path d="M465.3,587.6c2.9,0,5.5-1.2,7.4-3c1.9-1.9,3-4.5,3-7.4s-1.2-5.5-3-7.4c-1.9-1.9-4.5-3-7.4-3c-2.9,0-5.5,1.2-7.4,3
		c-1.9,1.9-3,4.5-3,7.4s1.2,5.5,3,7.4C459.8,586.5,462.4,587.6,465.3,587.6z M459.9,571.9c1.4-1.4,3.3-2.2,5.3-2.2
		c2.1,0,4,0.8,5.3,2.2c1.4,1.4,2.2,3.3,2.2,5.3s-0.8,4-2.2,5.3c-1.4,1.4-3.3,2.2-5.3,2.2c-2.1,0-4-0.8-5.3-2.2
		c-1.4-1.4-2.2-3.3-2.2-5.3S458.6,573.3,459.9,571.9z"/>
</g>
<g>
	<path fill="#fff" d="M465.3,314c0.8,0,1.6-0.2,2.4-0.5l0,0c0.8-0.3,1.4-0.8,2-1.3c0.6-0.6,1-1.2,1.3-2l0,0c0.3-0.7,0.5-1.5,0.5-2.4
		c0-0.8-0.2-1.6-0.5-2.4c-0.3-0.7-0.8-1.4-1.3-2l0,0c-0.6-0.6-1.2-1-2-1.3c-0.7-0.3-1.5-0.5-2.4-0.5c-0.8,0-1.6,0.2-2.4,0.5l0,0
		c-0.8,0.3-1.4,0.8-2,1.3c-0.6,0.6-1,1.2-1.3,2l0,0c-0.3,0.7-0.5,1.5-0.5,2.4c0,0.8,0.2,1.6,0.5,2.4l0,0c0.3,0.8,0.8,1.4,1.3,2
		c0.6,0.6,1.2,1,2,1.3l0,0C463.6,313.8,464.4,314,465.3,314"/>
</g>
<g>
	<path fill="#fff" d="M469.6,357.3c-0.6-0.6-1.2-1-2-1.3c-0.7-0.3-1.5-0.5-2.4-0.5c-0.8,0-1.6,0.2-2.4,0.5l0,0
		c-0.8,0.3-1.4,0.8-2,1.3c-0.6,0.6-1,1.2-1.3,2l0,0c-0.3,0.7-0.5,1.5-0.5,2.4c0,0.8,0.2,1.6,0.5,2.4l0,0c0.3,0.8,0.8,1.4,1.3,2
		c0.6,0.6,1.2,1,2,1.3l0,0c0.7,0.3,1.5,0.5,2.4,0.5c0.8,0,1.6-0.2,2.4-0.5l0,0c0.8-0.3,1.4-0.8,2-1.3c0.6-0.6,1-1.2,1.3-2l0,0
		c0.3-0.7,0.5-1.5,0.5-2.4c0-0.8-0.2-1.6-0.5-2.4C470.7,358.6,470.2,357.9,469.6,357.3L469.6,357.3z"/>
</g>
<g>
	<path fill="#fff" d="M465.3,409.4c-0.8,0-1.6,0.2-2.4,0.5l0,0c-0.8,0.3-1.4,0.8-2,1.3c-0.6,0.6-1,1.2-1.3,2l0,0
		c-0.3,0.7-0.5,1.5-0.5,2.4c0,0.8,0.2,1.6,0.5,2.4l0,0c0.3,0.8,0.8,1.4,1.3,2c0.6,0.6,1.2,1,2,1.3l0,0c0.7,0.3,1.5,0.5,2.4,0.5
		c0.8,0,1.6-0.2,2.4-0.5l0,0c0.8-0.3,1.4-0.8,2-1.3c0.6-0.6,1-1.2,1.3-2l0,0c0.3-0.7,0.5-1.5,0.5-2.4c0-0.8-0.2-1.6-0.5-2.4
		c-0.3-0.7-0.8-1.4-1.3-2l0,0c-0.6-0.6-1.2-1-2-1.3C466.9,409.6,466.1,409.4,465.3,409.4"/>
</g>
<g>
	<path fill="#fff" d="M465.3,463.3c-0.8,0-1.6,0.2-2.4,0.5l0,0c-0.8,0.3-1.4,0.8-2,1.3c-0.6,0.6-1,1.2-1.3,2l0,0
		c-0.3,0.7-0.5,1.5-0.5,2.4c0,0.8,0.2,1.6,0.5,2.4l0,0c0.3,0.8,0.8,1.4,1.3,2c0.6,0.6,1.2,1,2,1.3l0,0c0.7,0.3,1.5,0.5,2.4,0.5
		c0.8,0,1.6-0.2,2.4-0.5l0,0c0.8-0.3,1.4-0.8,2-1.3c0.6-0.6,1-1.2,1.3-2l0,0c0.3-0.7,0.5-1.5,0.5-2.4c0-0.8-0.2-1.6-0.5-2.4
		c-0.3-0.7-0.8-1.4-1.3-2l0,0c-0.6-0.6-1.2-1-2-1.3C466.9,463.5,466.1,463.3,465.3,463.3"/>
</g>
<g>
	<path fill="#fff" d="M465.3,517.2c-0.8,0-1.6,0.2-2.4,0.5l0,0c-0.8,0.3-1.4,0.8-2,1.3c-0.6,0.6-1,1.2-1.3,2l0,0
		c-0.3,0.7-0.5,1.5-0.5,2.4c0,0.8,0.2,1.6,0.5,2.4l0,0c0.3,0.8,0.8,1.4,1.3,2c0.6,0.6,1.2,1,2,1.3l0,0c0.7,0.3,1.5,0.5,2.4,0.5
		c0.8,0,1.6-0.2,2.4-0.5l0,0c0.8-0.3,1.4-0.8,2-1.3c0.6-0.6,1-1.2,1.3-2l0,0c0.3-0.7,0.5-1.5,0.5-2.4c0-0.8-0.2-1.6-0.5-2.4
		c-0.3-0.7-0.8-1.4-1.3-2l0,0c-0.6-0.6-1.2-1-2-1.3C466.9,517.4,466.1,517.2,465.3,517.2"/>
</g>
<g>
	<path fill="#fff" d="M465.3,571.1c-0.8,0-1.6,0.2-2.4,0.5l0,0c-0.8,0.3-1.4,0.8-2,1.3c-0.6,0.6-1,1.2-1.3,2l0,0
		c-0.3,0.7-0.5,1.5-0.5,2.4c0,0.8,0.2,1.6,0.5,2.4l0,0c0.3,0.8,0.8,1.4,1.3,2c0.6,0.6,1.2,1,2,1.3l0,0c0.7,0.3,1.5,0.5,2.4,0.5
		c0.8,0,1.6-0.2,2.4-0.5l0,0c0.8-0.3,1.4-0.8,2-1.3c0.6-0.6,1-1.2,1.3-2l0,0c0.3-0.7,0.5-1.5,0.5-2.4c0-0.8-0.2-1.6-0.5-2.4
		c-0.3-0.7-0.8-1.4-1.3-2l0,0c-0.6-0.6-1.2-1-2-1.3C466.9,571.3,466.1,571.1,465.3,571.1"/>
</g>
<g>
	<circle pulse:initial="true" fill="#fff" cx="298.7" cy="906.3" r="82.8"/>
</g>
<g>
	<path fill="#fff" d="M436.9,765.8l6.8-6.8c-37.3-36.7-88.5-59.4-145-59.4c-56.5,0-107.7,22.7-145,59.4l6.8,6.8
		c35.6-35,84.3-56.6,138.1-56.6C352.5,709.3,401.3,730.8,436.9,765.8 M424.8,777.9l7-7c-34.3-33.7-81.3-54.5-133.1-54.5
		c-51.9,0-98.9,20.8-133.1,54.5l7,7c32.5-31.9,77-51.6,126.1-51.6C347.8,726.3,392.4,746,424.8,777.9z M412.8,789.9l7-7
		c-31.2-30.6-73.9-49.5-121.1-49.5c-47.2,0-89.9,18.9-121.1,49.5l7,7c29.4-28.8,69.7-46.6,114.1-46.6
		C343.1,743.3,383.4,761.1,412.8,789.9z M400.8,801.9l7-7c-28.1-27.5-66.6-44.5-109.1-44.5c-42.5,0-81,17-109.1,44.5l7,7
		c26.3-25.7,62.3-41.6,102.1-41.6C338.4,760.3,374.5,776.2,400.8,801.9z M388.8,813.9l7-7c-25-24.5-59.3-39.5-97.1-39.5
		c-37.8,0-72,15.1-97.1,39.5l7,7c23.2-22.7,55-36.6,90-36.6S365.5,791.3,388.8,813.9z M376.7,826l7-7c-22-21.4-52-34.6-85-34.6
		s-63.1,13.2-85,34.6l7,7c20.2-19.6,47.7-31.7,78-31.7C329,794.3,356.6,806.4,376.7,826z M364.7,838l7-7
		c-18.9-18.3-44.6-29.6-73-29.6c-28.4,0-54.1,11.3-73,29.6l7,7c17.1-16.5,40.3-26.7,66-26.7C324.4,811.3,347.6,821.5,364.7,838z"/>
</g>
<g>
	<path fill="#fff" d="M158.3,768.1l-6.8-6.8c-36.7,37.3-59.4,88.5-59.4,145c0,56.5,22.7,107.7,59.4,145l6.8-6.8
		c-35-35.6-56.6-84.3-56.6-138.1C101.7,852.4,123.3,803.7,158.3,768.1 M170.3,780.1l-7-7c-33.7,34.3-54.5,81.3-54.5,133.1
		c0,51.9,20.8,98.9,54.5,133.1l7-7c-31.9-32.5-51.6-77-51.6-126.1C118.7,857.1,138.4,812.6,170.3,780.1z M182.3,792.2l-7-7
		c-30.6,31.2-49.5,73.9-49.5,121.1c0,47.2,18.9,89.9,49.5,121.1l7-7c-28.8-29.4-46.6-69.7-46.6-114.1
		C135.7,861.8,153.5,821.6,182.3,792.2z M194.4,804.2l-7-7c-27.5,28.1-44.5,66.6-44.5,109.1c0,42.5,17,81,44.5,109.1l7-7
		c-25.7-26.3-41.6-62.3-41.6-102.1C152.8,866.5,168.6,830.5,194.4,804.2z M206.4,816.2l-7-7c-24.5,25-39.5,59.3-39.5,97.1
		c0,37.8,15.1,72,39.5,97.1l7-7c-22.7-23.2-36.6-55-36.6-90S183.7,839.5,206.4,816.2z M218.4,828.2l-7-7c-21.4,22-34.6,52-34.6,85
		c0,33.1,13.2,63.1,34.6,85l7-7c-19.6-20.2-31.7-47.7-31.7-78C186.8,875.9,198.8,848.4,218.4,828.2z M230.5,840.3l-7-7
		c-18.3,18.9-29.6,44.6-29.6,73c0,28.4,11.3,54.1,29.6,73l7-7c-16.5-17.1-26.7-40.3-26.7-66C203.8,880.6,213.9,857.4,230.5,840.3z"
		/>
</g>
<g>
	<path fill="#fff" d="M160.6,1046.7l-6.8,6.8c37.3,36.7,88.5,59.4,145,59.4c56.5,0,107.7-22.7,145-59.4l-6.8-6.8
		c-35.6,35-84.3,56.6-138.1,56.6C244.9,1103.2,196.1,1081.7,160.6,1046.7 M172.6,1034.7l-7,7c34.3,33.7,81.3,54.5,133.1,54.5
		c51.9,0,98.9-20.8,133.1-54.5l-7-7c-32.5,31.9-77,51.6-126.1,51.6C249.6,1086.2,205.1,1066.6,172.6,1034.7z M184.6,1022.6l-7,7
		c31.2,30.6,73.9,49.5,121.1,49.5c47.2,0,89.9-18.9,121.1-49.5l-7-7c-29.4,28.8-69.7,46.6-114.1,46.6
		C254.3,1069.2,214,1051.5,184.6,1022.6z M196.7,1010.6l-7,7c28.1,27.5,66.6,44.5,109.1,44.5c42.5,0,81-17,109.1-44.5l-7-7
		c-26.3,25.7-62.3,41.6-102.1,41.6C259,1052.2,223,1036.3,196.7,1010.6z M208.7,998.6l-7,7c25,24.5,59.3,39.5,97.1,39.5
		c37.8,0,72-15.1,97.1-39.5l-7-7c-23.2,22.7-55,36.6-90,36.6S231.9,1021.2,208.7,998.6z M220.7,986.5l-7,7c22,21.4,52,34.6,85,34.6
		s63.1-13.2,85-34.6l-7-7c-20.2,19.6-47.7,31.7-78,31.7C268.4,1018.2,240.9,1006.1,220.7,986.5z M232.7,974.5l-7,7
		c18.9,18.3,44.6,29.6,73,29.6c28.4,0,54.1-11.3,73-29.6l-7-7c-17.1,16.5-40.3,26.7-66,26.7C273.1,1001.2,249.8,991,232.7,974.5z"/>
</g>
<g>
	<path fill="#fff" d="M439.1,1044.4l6.8,6.8c36.7-37.3,59.4-88.5,59.4-145c0-56.5-22.7-107.7-59.4-145l-6.8,6.8
		c35,35.6,56.6,84.3,56.6,138.1C495.7,960.1,474.1,1008.8,439.1,1044.4 M427.1,1032.4l7,7c33.7-34.3,54.5-81.3,54.5-133.1
		c0-51.9-20.8-98.9-54.5-133.1l-7,7c31.9,32.5,51.6,77,51.6,126.1C478.7,955.4,459,999.9,427.1,1032.4z M415.1,1020.3l7,7
		c30.6-31.2,49.5-73.9,49.5-121.1c0-47.2-18.9-89.9-49.5-121.1l-7,7c28.8,29.4,46.6,69.7,46.6,114.1
		C461.7,950.7,443.9,990.9,415.1,1020.3z M403.1,1008.3l7,7c27.5-28.1,44.5-66.6,44.5-109.1c0-42.5-17-81-44.5-109.1l-7,7
		c25.7,26.3,41.6,62.3,41.6,102.1C444.7,946,428.8,982,403.1,1008.3z M391,996.3l7,7c24.5-25,39.5-59.3,39.5-97.1
		c0-37.8-15.1-72-39.5-97.1l-7,7c22.7,23.2,36.6,55,36.6,90S413.7,973,391,996.3z M379,984.3l7,7c21.4-22,34.6-52,34.6-85
		c0-33.1-13.2-63.1-34.6-85l-7,7c19.6,20.2,31.7,47.7,31.7,78C410.7,936.6,398.6,964.1,379,984.3z M367,972.2l7,7
		c18.3-18.9,29.6-44.6,29.6-73c0-28.4-11.3-54.1-29.6-73l-7,7c16.5,17.1,26.7,40.3,26.7,66C393.7,931.9,383.5,955.1,367,972.2z"/>
</g>
</svg>
