<?xml version="1.0" encoding="utf-8"?>
<!-- Generator: Adobe Illustrator 17.0.0, SVG Export Plug-In . SVG Version: 6.00 Build 0)  -->
<!DOCTYPE svg PUBLIC "-//W3C//DTD SVG 1.1//EN" "http://www.w3.org/Graphics/SVG/1.1/DTD/svg11.dtd">
<svg version="1.1" id="Layer_1" xmlns="http://www.w3.org/2000/svg" xmlns:xlink="http://www.w3.org/1999/xlink" x="0px" y="0px"
	 width="374.345px" height="703.511px" viewBox="0 0 374.345 703.511" enable-background="new 0 0 374.345 703.511"
	 xml:space="preserve"  xmlns:onclick="-" xmlns:animation="-" animation:toggle="" xmlns:toggle="-" xmlns:show="-">
	<style>
		<![CDATA[
			svg .switch {
				-webkit-transition: transform 0.3s ease-in-out;
                transition: transform 0.3s ease-in-out;
			}

			svg .toggle {
                transform: translateX(102px);
			}

			svg .light {
				-webkit-transition: opacity 0.1s ease-in-out;
                transition: opacity 0.1s ease-in-out;
			}
	   ]]>
	</style>
<polygon points="172.718,0 172.539,0 172.9,0 "/>
<path d="M187.135,0.003C83.854,0.118,0,83.854,0,187.156c0,49.655,25.262,92.508,50.841,130.945
	C93.162,381.655,85.828,423.4,93.158,440.372h-0.007c0.01,0.03,0.024,0.061,0.04,0.091l0.01,0.017
	c1.58,3.604,3.837,6.081,7.398,7.394c2.031,2.035,3.477,4.794,5.154,7.034c0.943,1.408,1.411,3.284,1.883,5.161
	c1.405,3.756,2.344,7.977,3.281,13.609c0.94,5.633,1.877,12.202,2.348,19.242l1.405,23.931v25.343v2.816l21.59,22.995l7.037,6.569
	L162.072,591l0.472,0.468c3.281,2.816,7.034,5.632,24.399,6.569h0.472c17.831-0.937,21.115-3.756,24.396-6.569l0.472-0.468
	l18.774-16.426l7.506-6.569h-0.468l22.058-22.995h-0.472v-2.816c0-7.509,0-16.426,0.472-25.343c0-7.977,0.468-15.954,0.936-23.931
	c0.937-7.04,1.408-13.609,2.348-19.242c0.936-5.632,1.876-9.853,3.281-13.609c0.475-1.877,1.411-3.753,1.88-5.161
	c1.479-1.974,3.412-5.245,5.08-6.95v-0.003c20.617-7.236-1.745-52.316,49.901-129.854c25.569-38.42,50.767-79.956,50.767-129.581
	C374.358,85.198,290.424,0.118,187.135,0.003z M207.59,586.776l-0.468,0.468c-2.345,1.88-5.161,4.225-19.707,4.696
	c-15.018-0.472-17.366-2.816-20.185-4.696l-0.468-0.468l-11.73-10.793c1.876,0.468,3.753,0.468,6.104,0.468h12.195
	c4.7,0.471,9.385,0.471,14.085,0.471c4.693,0,9.382,0,13.609-0.471h12.67c1.876,0,4.224,0,5.629-0.468L207.59,586.776z
	 M261.089,453.031c-0.936,2.348-1.876,4.224-2.345,6.101c-1.405,3.756-2.344,8.445-3.284,14.078
	c-0.937,5.632-1.876,12.201-2.351,19.239l-1.405,23.935v22.527h-2.816c-2.345,0.468-4.221,0.468-6.566,0.468
	c-2.816,0.468-5.636,0.468-7.98,0.468c-2.813,0-5.629,0.472-8.446,0.472c-3.288,0-6.572,0-9.385,0.468h-9.388h-9.857
	c-3.753,0.472-7.037,0.472-9.85,0.472c-3.288,0-6.572,0-9.854-0.472h-9.86h-9.857c-2.813-0.468-6.097-0.468-8.91-0.468
	c-2.816,0-5.636-0.472-8.92-0.472c-2.344,0-5.161,0-7.974-0.468c-1.88,0-4.228,0-6.572-0.468h-2.813v-15.486l24.871,1.408
	c15.954,0.94,32.377,0.94,46.455,0.94v-4.224c-14.078,0-30.969-0.472-46.455-0.94c-8.449-0.468-16.897-0.936-24.871-1.876v-2.348
	c0-3.753-0.468-7.509-0.468-11.262l25.339,1.408c15.954,0.936,32.377,0.936,46.455,0.936v-4.221
	c-14.078,0-30.969-0.468-46.455-1.408c-8.92,0-17.834-0.94-25.811-1.411c0-2.813,0-5.158-0.468-7.977
	c0-1.876-0.472-3.753-0.472-6.098c8.445,0.937,17.362,1.408,26.751,1.877c15.954,0.936,32.377,0.936,46.455,0.936v-4.693
	c-14.078,0-30.969,0-46.455-0.94c-9.388-0.468-18.774-0.936-27.219-1.876l-1.408-8.445c0-1.877-0.468-3.753-0.943-5.164
	c8.917,0.94,19.245,1.412,29.57,1.88c15.954,0.468,32.377,0.94,46.455,0.94v-4.696c-14.078,0-30.969,0-46.455-0.937
	c-10.793-0.468-21.59-0.94-30.507-1.876l-1.408-4.224c-0.468-1.876-1.408-3.753-2.345-6.101c-0.471-0.94-1.408-2.348-2.348-3.756
	l2.816,0.472c3.753,0.468,7.981,0.468,12.67,0.937l28.159,1.408c10.794,0.468,22.058,0.468,32.384,0.468
	c10.318,0,21.583,0,32.845-0.468l27.688-1.408c4.693-0.468,9.389-0.468,13.141-0.937l2.816-0.472
	C262.497,450.683,262.025,451.623,261.089,453.031z M311.781,310.245c-18.078,27.149-30.933,55.548-37.154,87.616
	c-1.757,9.057-2.799,18.026-4.154,27.121c-0.249,1.671-0.967,6.483-1.854,9.055l-10.028,1.679
	c-3.968,0.471-8.125,0.452-12.152,0.828l-27.301,1.388c-10.725,0.444-21.459,0.453-32.191,0.453
	c-10.554,0-21.133,0.076-31.676-0.451l-27.832-1.391c-3.872-0.363-7.853-0.374-11.675-0.828l-9.868-1.653
	c-1.316-3.581-1.964-9.416-2.451-12.953c-1.27-9.213-2.521-18.248-4.465-27.361c-6.484-30.393-19.151-57.682-36.341-83.502
	c-24.568-36.903-48.465-77.323-48.465-123.091c0-95.467,77.493-172.979,172.962-172.979c95.647,0,173.045,79.032,173.036,174.342
	C360.168,234.276,336.262,273.481,311.781,310.245z"/>
<path show:initial="false" show:state="1" class="light" fill-rule="evenodd" clip-rule="evenodd" fill="#0078CC" d="M268.619,434.037c0.887-2.571,1.605-7.383,1.854-9.055
	c1.355-9.095,2.397-18.064,4.154-27.121c6.221-32.067,19.076-60.466,37.154-87.616c24.481-36.765,48.386-75.969,48.391-121.727
	c0.008-95.31-77.389-174.342-173.036-174.342c-95.47,0-172.962,77.512-172.962,172.979c0,45.768,23.898,86.188,48.465,123.091
	c17.19,25.82,29.857,53.11,36.341,83.502c1.944,9.113,3.196,18.148,4.465,27.361c0.488,3.537,1.136,9.372,2.451,12.953l9.868,1.653
	c3.822,0.454,7.803,0.465,11.675,0.828l27.832,1.392c10.543,0.527,21.122,0.451,31.676,0.451c10.732,0,21.466-0.009,32.191-0.453
	l27.301-1.388c4.027-0.376,8.184-0.358,12.152-0.828L268.619,434.037z"/>
<path fill-rule="evenodd" clip-rule="evenodd" fill="none" stroke="#000000" stroke-width="4" stroke-miterlimit="10" d="
	M287.173,656.371c0,4.418-3.582,8-8,8h-184c-4.418,0-8-3.582-8-8l0,0c0-4.418,3.582-8,8-8h184
	C283.591,648.371,287.173,651.952,287.173,656.371L287.173,656.371z"/>
<circle toggle:state="1" class="switch" fill-rule="evenodd" clip-rule="evenodd" fill="#000000" cx="136.282" cy="656.371" r="47.14"/>
  <rect onclick:toggle="undefined" height="106" width="260" y="598.25549" x="59.67249" style="opacity: 0;"/>
</svg>
