<?xml version="1.0" encoding="utf-8"?>
<!-- Generator: Adobe Illustrator 17.0.0, SVG Export Plug-In . SVG Version: 6.00 Build 0)  -->
<!DOCTYPE svg PUBLIC "-//W3C//DTD SVG 1.1//EN" "http://www.w3.org/Graphics/SVG/1.1/DTD/svg11.dtd">
<svg version="1.1"
	 id="Layer_1" xmlns:inkscape="http://www.inkscape.org/namespaces/inkscape" xmlns:svg="http://www.w3.org/2000/svg" xmlns:dc="http://purl.org/dc/elements/1.1/" xmlns:sodipodi="http://sodipodi.sourceforge.net/DTD/sodipodi-0.dtd" xmlns:rdf="http://www.w3.org/1999/02/22-rdf-syntax-ns#" xmlns:cc="http://creativecommons.org/ns#" sodipodi:docname="HEMA_Plug2D.svg" inkscape:version="0.91 r13725"
	 xmlns="http://www.w3.org/2000/svg" xmlns:xlink="http://www.w3.org/1999/xlink" x="0px" y="0px" width="220.576px"
	 height="458.832px" viewBox="-89.285 -185.727 220.576 458.832" enable-background="new -89.285 -185.727 220.576 458.832"
	 xml:space="preserve">
<sodipodi:namedview  gridtolerance="10" inkscape:cx="-560.89764" inkscape:cy="211.73935" objecttolerance="10" inkscape:zoom="0.47745226" guidetolerance="10" showgrid="false" pagecolor="#ffffff" bordercolor="#666666" borderopacity="1" id="namedview13" inkscape:current-layer="Layer_1" inkscape:window-maximized="1" inkscape:window-y="-8" inkscape:window-x="-8" inkscape:window-height="837" inkscape:window-width="1600" inkscape:pageshadow="2" inkscape:pageopacity="0">
	</sodipodi:namedview>
<path id="path3" d="M112.749-182.749c-0.168,58.392-10.287,111.254-26.555,149.634c-16.572,39.089-39.614,63.27-65.192,63.27
	s-48.62-24.181-65.192-63.27c-16.278-38.38-26.392-91.242-26.56-149.634h-2.163c-3.681,0-7.031,1.507-9.462,3.938
	c-2.426,2.426-3.938,5.776-3.938,9.457v426.086c0,3.686,1.507,7.036,3.933,9.462c2.426,2.426,5.781,3.933,9.462,3.933h187.82
	c3.681,0,7.031-1.507,9.457-3.933c2.431-2.431,3.938-5.776,3.938-9.462v-426.086c0-3.686-1.507-7.036-3.933-9.457l-0.005-0.005
	c-2.421-2.426-5.776-3.933-9.457-3.933H112.749z M-67.771-182.749c0.168,58.008,10.192,110.456,26.313,148.479
	C-25.364,3.69-3.273,27.178,21.003,27.178c24.27,0,46.367-23.483,62.461-61.448c16.121-38.023,26.145-90.476,26.313-148.479
	C109.777-182.749-67.771-182.749-67.771-182.749z M-72.912-185.727h2.158h183.509h2.158c4.495,0,8.591,1.843,11.558,4.81
	l0.005,0.005h0.005c2.967,2.967,4.81,7.063,4.81,11.558v426.086c0,4.505-1.843,8.601-4.81,11.563
	c-2.967,2.967-7.063,4.81-11.563,4.81h-187.83c-4.5,0-8.591-1.843-11.558-4.81l-0.005-0.005c-2.967-2.962-4.81-7.057-4.81-11.558
	v-426.086c0-4.505,1.843-8.596,4.81-11.563C-81.513-183.883-77.418-185.727-72.912-185.727z"/>
<path id="path5" d="M92.003,80.497C73.834,62.328,48.729,51.086,20.998,51.086s-52.831,11.243-71.005,29.411
	c-18.169,18.169-29.411,43.274-29.411,71.005c0,27.726,11.243,52.836,29.411,71.005s43.274,29.411,71.005,29.411
	s52.836-11.243,71.005-29.411s29.411-43.274,29.411-71.005C121.414,123.776,110.171,98.671,92.003,80.497 M20.998,48.114
	c28.55,0,54.401,11.573,73.11,30.283c18.71,18.71,30.283,44.56,30.283,73.11s-11.573,54.401-30.283,73.11S49.548,254.9,20.998,254.9
	s-54.401-11.573-73.11-30.283c-18.71-18.71-30.283-44.555-30.283-73.11c0-28.55,11.573-54.401,30.283-73.11
	S-7.552,48.114,20.998,48.114z"/>
<path id="path7" d="M59.64,137.707c3.807,0,7.262,1.544,9.756,4.043c2.494,2.494,4.043,5.949,4.043,9.756
	c0,3.812-1.544,7.262-4.043,9.756h-0.005c-2.499,2.499-5.949,4.043-9.751,4.043c-3.802,0-7.252-1.544-9.751-4.043h-0.005v-0.005
	c-2.494-2.499-4.043-5.944-4.043-9.751c0-3.802,1.549-7.257,4.043-9.751l0,0C52.383,139.251,55.833,137.707,59.64,137.707
	 M-19.614,137.707c3.807,0,7.262,1.544,9.756,4.043c2.494,2.494,4.043,5.949,4.043,9.756c0,3.812-1.549,7.262-4.043,9.756h-0.005
	c-2.5,2.499-5.949,4.043-9.751,4.043s-7.252-1.544-9.751-4.043h-0.005l-0.005-0.005c-2.494-2.499-4.043-5.944-4.043-9.751
	c0-3.802,1.549-7.257,4.043-9.751h-0.005C-26.876,139.251-23.426,137.707-19.614,137.707z"/>
<path id="path9" d="M-67.703,159.877c1.407,15.065,6.564,29.049,14.53,40.995v-40.995H-67.703z M-53.173,143.126v-40.99
	c-7.966,11.946-13.122,25.924-14.53,40.995h14.53V143.126z M95.657,102.866v40.26h14.047
	C108.323,128.365,103.35,114.65,95.657,102.866z M95.657,159.877v40.26c7.693-11.783,12.671-25.499,14.047-40.26H95.657z
	 M94.166,202.348v-43.211v-0.746h0.746h14.918c0.173-2.274,0.263-4.568,0.263-6.884c0-2.316-0.089-4.616-0.263-6.884H94.912h-0.746
	v-0.746v-43.211C91.141,96.308,87.733,92.243,84,88.505C67.879,72.384,45.604,62.412,21.003,62.412s-46.876,9.977-62.997,26.093
	c-3.539,3.539-6.779,7.372-9.688,11.468v43.904v0.746h-0.751h-15.396c-0.173,2.274-0.263,4.568-0.263,6.884
	c0,2.316,0.089,4.61,0.263,6.884h15.401h0.74v0.746v43.904c2.904,4.091,6.149,7.929,9.688,11.468
	c16.121,16.121,38.396,26.092,62.997,26.092S67.874,230.624,84,214.504C87.733,210.765,91.141,206.695,94.166,202.348z
	 M20.998,59.435c25.426,0,48.441,10.308,65.103,26.964c16.662,16.662,26.969,39.682,26.969,65.103
	c0,25.426-10.308,48.441-26.969,65.103c-16.662,16.662-39.682,26.969-65.103,26.969c-25.426,0-48.441-10.308-65.103-26.969
	c-16.662-16.662-26.964-39.677-26.964-65.103c0-25.42,10.308-48.441,26.964-65.103C-27.443,69.743-4.428,59.435,20.998,59.435z"/>
<path id="path11" d="M-24.083-108.94c3.807,0,7.262,1.544,9.756,4.043c2.494,2.494,4.043,5.949,4.043,9.756
	c0,3.812-1.544,7.262-4.043,9.756l-0.005-0.005c-2.5,2.499-5.949,4.043-9.751,4.043s-7.252-1.544-9.751-4.043l-0.005-0.005
	l-0.005-0.005c-2.494-2.5-4.043-5.944-4.043-9.751c0-3.802,1.549-7.257,4.043-9.751l-0.005-0.005
	C-31.345-107.391-27.895-108.94-24.083-108.94"/>
</svg>
